<?xml version="1.0" standalone="no"?>
<!DOCTYPE svg PUBLIC "-//W3C//DTD SVG 20010904//EN"
 "http://www.w3.org/TR/2001/REC-SVG-20010904/DTD/svg10.dtd">
<svg version="1.0" xmlns="http://www.w3.org/2000/svg"
 width="135.000000pt" height="57.000000pt" viewBox="0 0 135.000000 57.000000"
 preserveAspectRatio="xMidYMid meet">
<g transform="translate(0.000000,57.000000) scale(0.100000,-0.100000)"
fill="#000" stroke="none">
<path d="M1014 561 c-12 -5 -31 -22 -44 -38 -17 -22 -21 -36 -17 -68 16 -115
178 -115 194 1 4 35 1 46 -23 73 -31 33 -76 46 -110 32z"/>
<path d="M146 439 c-30 -24 -34 -63 -10 -97 11 -16 25 -22 54 -22 44 0 70 26
70 71 0 30 -40 69 -70 69 -10 0 -29 -9 -44 -21z"/>
<path d="M985 321 c-54 -14 -99 -43 -173 -112 -124 -116 -188 -124 -328 -42
-166 97 -202 113 -263 113 -38 0 -72 -8 -106 -24 -56 -26 -115 -72 -115 -89 0
-7 15 -30 34 -52 l33 -39 38 33 c103 90 201 79 378 -41 78 -53 117 -68 174
-68 71 0 140 37 231 124 117 112 163 125 301 84 73 -21 74 -21 88 -2 12 17 11
21 -9 38 -70 57 -211 96 -283 77z"/>
<path d="M596 269 c-30 -24 -34 -63 -10 -97 11 -16 25 -22 54 -22 44 0 70 26
70 71 0 30 -40 69 -70 69 -10 0 -29 -9 -44 -21z"/>
</g>
</svg>
