<?xml version="1.0" standalone="no"?>
<!DOCTYPE svg PUBLIC "-//W3C//DTD SVG 20010904//EN"
 "http://www.w3.org/TR/2001/REC-SVG-20010904/DTD/svg10.dtd">
<svg version="1.0" xmlns="http://www.w3.org/2000/svg"
 width="100%" height="100%" viewBox="0 0 736.000000 443.000000"
 preserveAspectRatio="xMidYMid meet">

<g transform="translate(0.000000,443.000000) scale(0.100000,-0.100000)"
fill="#b20000" stroke="none">
<path d="M5174 3915 c-216 -47 -350 -247 -305 -451 25 -109 125 -220 240 -266
79 -32 223 -32 302 0 76 30 142 83 188 153 94 140 77 319 -43 447 -57 61 -126
99 -213 117 -81 17 -90 17 -169 0z"/>
<path d="M1925 3485 c-111 -45 -185 -152 -185 -266 0 -104 84 -220 186 -258
193 -73 404 66 404 264 0 112 -80 221 -193 264 -75 27 -138 26 -212 -4z"/>
<path d="M5111 3045 c-212 -46 -517 -199 -694 -348 -27 -23 -79 -78 -115 -122
-219 -267 -352 -340 -622 -338 -274 1 -537 98 -771 285 -434 347 -741 424
-1106 278 -170 -68 -405 -228 -521 -354 l-42 -46 156 -200 c86 -110 159 -200
163 -200 3 1 24 23 45 50 69 88 189 200 261 245 111 69 194 90 355 90 75 0
166 -6 205 -14 171 -34 408 -133 505 -212 501 -407 780 -488 1163 -338 227 89
400 217 572 425 218 261 400 354 695 354 189 0 457 -62 616 -143 l51 -26 83
102 82 102 -33 28 c-48 41 -267 185 -372 245 -112 64 -242 116 -340 136 -92
19 -249 19 -336 1z"/>
<path d="M3635 2877 c-96 -32 -153 -81 -192 -165 -21 -44 -25 -65 -21 -120 9
-154 116 -260 273 -270 220 -13 372 197 286 395 -55 125 -221 201 -346 160z"/>
</g>
</svg>
