<?xml version="1.0" standalone="no"?>
<!DOCTYPE svg PUBLIC "-//W3C//DTD SVG 20010904//EN"
 "http://www.w3.org/TR/2001/REC-SVG-20010904/DTD/svg10.dtd">
<svg version="1.0" xmlns="http://www.w3.org/2000/svg"
 width="736.000000pt" height="443.000000pt" viewBox="0 0 736.000000 443.000000"
 preserveAspectRatio="xMidYMid meet">

<g transform="translate(0.000000,443.000000) scale(0.100000,-0.100000)"
fill="#fff" stroke="none">
<path d="M5174 3915 c-216 -47 -350 -247 -305 -451 25 -109 125 -220 240 -266
79 -32 223 -32 302 0 76 30 142 83 188 153 94 140 77 319 -43 447 -57 61 -126
99 -213 117 -81 17 -90 17 -169 0z"/>
<path d="M1925 3485 c-111 -45 -185 -152 -185 -266 0 -104 84 -220 186 -258
193 -73 404 66 404 264 0 112 -80 221 -193 264 -75 27 -138 26 -212 -4z"/>
<path d="M5111 3045 c-212 -46 -517 -199 -694 -348 -27 -23 -79 -78 -115 -122
-219 -267 -352 -340 -622 -338 -274 1 -537 98 -771 285 -434 347 -741 424
-1106 278 -170 -68 -405 -228 -521 -354 l-42 -46 156 -200 c86 -110 159 -200
163 -200 3 1 24 23 45 50 69 88 189 200 261 245 111 69 194 90 355 90 75 0
166 -6 205 -14 171 -34 408 -133 505 -212 501 -407 780 -488 1163 -338 227 89
400 217 572 425 218 261 400 354 695 354 189 0 457 -62 616 -143 l51 -26 83
102 82 102 -33 28 c-48 41 -267 185 -372 245 -112 64 -242 116 -340 136 -92
19 -249 19 -336 1z"/>
<path d="M3635 2877 c-96 -32 -153 -81 -192 -165 -21 -44 -25 -65 -21 -120 9
-154 116 -260 273 -270 220 -13 372 197 286 395 -55 125 -221 201 -346 160z"/>
<path d="M4355 1435 c-104 -37 -144 -179 -82 -289 30 -54 78 -78 143 -73 95 7
154 80 154 189 0 130 -103 214 -215 173z m116 -50 c19 -13 49 -88 49 -128 0
-118 -108 -190 -180 -119 -76 77 -48 250 43 264 23 4 68 -5 88 -17z"/>
<path d="M5687 1436 c-49 -18 -64 -32 -89 -80 -15 -29 -21 -59 -21 -102 1 -68
16 -105 63 -149 28 -27 38 -30 95 -30 76 0 109 20 143 85 77 153 -44 329 -191
276z m121 -58 c64 -54 50 -223 -23 -256 -85 -39 -158 23 -157 134 1 102 59
164 135 143 16 -5 36 -14 45 -21z"/>
<path d="M1330 1310 c0 -145 10 -182 56 -219 24 -19 38 -22 82 -19 43 4 59 11
85 37 l32 31 3 150 c3 143 3 150 -16 150 -18 0 -20 -9 -24 -133 -3 -105 -7
-139 -21 -160 -32 -50 -106 -48 -132 3 -11 22 -15 62 -15 160 l0 130 -25 0
-25 0 0 -130z"/>
<path d="M1670 1260 l0 -180 25 0 25 0 0 141 0 142 84 -139 c70 -115 89 -140
110 -142 l26 -3 0 180 c0 174 -1 181 -20 181 -19 0 -20 -7 -20 -142 l0 -142
-87 142 c-79 128 -90 142 -115 142 l-28 0 0 -180z"/>
<path d="M2020 1255 l0 -185 25 0 25 0 0 185 0 185 -25 0 -25 0 0 -185z"/>
<path d="M2110 1420 c0 -18 7 -20 55 -20 l55 0 0 -160 0 -160 25 0 25 0 0 160
0 160 55 0 c48 0 55 2 55 20 0 19 -7 20 -135 20 -128 0 -135 -1 -135 -20z"/>
<path d="M2410 1260 l0 -180 106 0 c95 0 105 2 102 18 -3 14 -16 17 -81 20
l-77 3 0 64 0 65 70 0 c63 0 70 2 70 20 0 18 -7 20 -70 20 l-70 0 0 55 0 55
75 0 c68 0 75 2 75 20 0 19 -7 20 -100 20 l-100 0 0 -180z"/>
<path d="M2682 1258 l3 -183 45 -3 c60 -5 143 14 176 40 56 45 81 158 50 231
-29 69 -88 97 -203 97 l-73 0 2 -182z m173 126 c61 -28 84 -126 48 -201 -20
-43 -85 -76 -141 -71 l-37 3 -3 143 -3 142 52 0 c28 0 66 -7 84 -16z"/>
<path d="M3180 1260 l0 -180 106 0 c95 0 105 2 102 18 -3 14 -16 17 -81 20
l-78 3 3 62 3 62 68 3 c59 3 67 5 67 22 0 18 -7 20 -70 20 l-70 0 0 55 0 55
75 0 c68 0 75 2 75 20 0 19 -7 20 -100 20 l-100 0 0 -180z"/>
<path d="M3430 1434 c0 -3 22 -44 50 -90 l49 -85 -54 -89 -55 -90 30 0 c26 0
33 7 59 58 49 93 44 92 90 13 34 -57 47 -71 66 -71 14 0 25 3 25 6 0 3 -23 44
-51 91 l-51 84 51 84 c28 46 51 86 51 89 0 3 -11 6 -25 6 -20 0 -31 -12 -62
-70 -21 -38 -40 -70 -43 -70 -3 0 -22 32 -43 70 -31 58 -42 70 -62 70 -14 0
-25 -3 -25 -6z"/>
<path d="M3750 1260 l0 -180 25 0 c24 0 25 2 25 70 l0 70 40 0 c79 0 130 45
130 115 -1 74 -44 105 -149 105 l-71 0 0 -180z m148 124 c15 -11 22 -25 22
-50 0 -47 -29 -74 -80 -74 l-40 0 0 70 0 70 38 0 c21 0 48 -7 60 -16z"/>
<path d="M4030 1260 l0 -180 100 0 c93 0 100 1 100 20 0 18 -7 20 -75 20 l-75
0 0 160 0 160 -25 0 -25 0 0 -180z"/>
<path d="M4630 1261 l0 -181 25 0 c24 0 25 2 25 75 l0 75 35 0 c47 0 68 -24
84 -93 11 -50 15 -57 37 -57 13 0 24 3 24 6 0 27 -44 145 -56 152 -13 7 -11
14 15 40 39 39 42 88 7 129 -23 26 -31 28 -110 32 l-86 3 0 -181z m152 122
c10 -9 18 -30 18 -49 0 -41 -30 -64 -82 -64 l-38 0 0 65 0 65 42 0 c24 0 49
-7 60 -17z"/>
<path d="M4953 1260 l-62 -181 26 3 c22 2 29 12 43 53 l17 50 64 3 65 3 18
-56 c15 -47 20 -55 42 -55 20 0 24 4 20 18 -3 9 -30 89 -59 177 -52 155 -54
160 -83 163 l-29 3 -62 -181z m109 62 c9 -32 20 -66 24 -75 5 -15 -1 -17 -46
-17 -45 0 -51 2 -46 17 4 9 15 43 24 75 9 32 19 58 22 58 3 0 13 -26 22 -58z"/>
<path d="M5160 1420 c0 -18 7 -20 55 -20 l55 0 0 -160 0 -160 25 0 25 0 0 160
0 160 55 0 c48 0 55 2 55 20 0 19 -7 20 -135 20 -128 0 -135 -1 -135 -20z"/>
<path d="M5470 1255 l0 -185 25 0 25 0 0 185 0 185 -25 0 -25 0 0 -185z"/>
<path d="M5960 1260 l0 -180 26 0 26 0 -4 146 c-2 80 0 140 4 133 5 -8 43 -72
86 -144 66 -110 82 -130 105 -133 l27 -3 0 180 c0 174 -1 181 -20 181 -19 0
-20 -7 -20 -147 l0 -148 -43 75 c-115 199 -130 220 -159 220 l-28 0 0 -180z"/>
<path d="M2258 833 c881 -2 2323 -2 3205 0 881 1 160 2 -1603 2 -1763 0 -2484
-1 -1602 -2z"/>
<path d="M2397 614 c-4 -4 -7 -63 -7 -131 0 -117 1 -123 20 -123 20 0 20 5 18
127 -3 117 -10 148 -31 127z"/>
<path d="M2530 490 c0 -109 2 -130 15 -130 12 0 15 19 15 108 l0 107 71 -107
c49 -76 76 -108 90 -108 18 0 19 8 19 130 0 108 -3 130 -15 130 -11 0 -15 -21
-17 -107 l-3 -108 -70 107 c-96 148 -105 147 -105 -22z"/>
<path d="M2830 490 l0 -130 74 0 c63 0 77 3 99 24 23 21 47 79 47 113 0 7 -7
31 -16 53 -21 53 -55 70 -139 70 l-65 0 0 -130z m159 81 c42 -42 31 -153 -19
-178 -14 -7 -44 -13 -67 -13 l-43 0 0 105 0 105 55 0 c40 0 60 -5 74 -19z"/>
<path d="M3140 490 c0 -109 2 -130 15 -130 13 0 15 21 15 130 0 109 -2 130
-15 130 -13 0 -15 -21 -15 -130z"/>
<path d="M3303 490 c-43 -110 -48 -130 -33 -130 11 0 21 14 29 40 l12 40 58 0
58 0 13 -40 c7 -22 19 -40 27 -40 19 0 18 2 -33 138 -34 89 -51 122 -64 122
-12 0 -30 -35 -67 -130z m91 33 c22 -63 22 -63 -24 -63 -25 0 -40 5 -40 12 0
20 32 98 40 98 5 0 15 -21 24 -47z"/>
<path d="M3700 490 c0 -109 2 -130 15 -130 12 0 15 13 15 55 l0 55 54 0 c70 0
100 22 100 75 0 56 -29 75 -115 75 l-69 0 0 -130z m150 80 c24 -45 -13 -80
-86 -80 l-34 0 0 50 0 50 55 0 c44 0 56 -4 65 -20z"/>
<path d="M3940 618 c1 -2 20 -59 44 -128 59 -170 68 -171 120 -13 21 65 41
124 43 131 3 6 -2 12 -10 12 -11 0 -25 -31 -47 -97 -18 -54 -36 -102 -40 -106
-4 -5 -23 38 -42 95 -24 70 -40 104 -51 106 -9 2 -17 2 -17 0z"/>
<path d="M4202 608 c3 -7 21 -14 41 -16 l37 -3 0 -115 c0 -107 1 -114 20 -114
19 0 20 7 20 114 l0 115 37 3 c20 2 38 9 41 16 3 9 -21 12 -98 12 -77 0 -101
-3 -98 -12z"/>
<path d="M4610 490 l0 -130 85 0 c50 0 85 4 85 10 0 6 -30 10 -70 10 l-70 0 0
120 c0 100 -2 120 -15 120 -13 0 -15 -21 -15 -130z"/>
<path d="M4802 608 c3 -7 21 -14 41 -16 l37 -3 0 -115 c0 -95 3 -114 15 -114
12 0 15 19 15 114 l0 115 37 3 c20 2 38 9 41 16 3 9 -20 12 -93 12 -73 0 -96
-3 -93 -12z"/>
<path d="M5060 490 l0 -130 76 0 c70 0 78 2 104 28 32 33 45 85 35 139 -3 20
-19 49 -35 65 -26 26 -34 28 -104 28 l-76 0 0 -130z m166 79 c14 -16 19 -36
19 -80 0 -77 -21 -100 -99 -107 l-56 -4 0 106 0 106 58 0 c47 0 63 -4 78 -21z"/>
</g>
</svg>
