<svg version="1" xmlns="http://www.w3.org/2000/svg" width="180" height="76" viewBox="0 0 135.000000 57.000000"><path d="M101.4.9c-1.2.5-3.1 2.2-4.4 3.8-1.7 2.2-2.1 3.6-1.7 6.8 1.6 11.5 17.8 11.5 19.4-.1.4-3.5.1-4.6-2.3-7.3-3.1-3.3-7.6-4.6-11-3.2zM14.6 13.1c-3 2.4-3.4 6.3-1 9.7 1.1 1.6 2.5 2.2 5.4 2.2 4.4 0 7-2.6 7-7.1 0-3-4-6.9-7-6.9-1 0-2.9.9-4.4 2.1zM98.5 24.9c-5.4 1.4-9.9 4.3-17.3 11.2-12.4 11.6-18.8 12.4-32.8 4.2C31.8 30.6 28.2 29 22.1 29c-3.8 0-7.2.8-10.6 2.4C5.9 34 0 38.6 0 40.3c0 .7 1.5 3 3.4 5.2l3.3 3.9 3.8-3.3c10.3-9 20.1-7.9 37.8 4.1C56.1 55.5 60 57 65.7 57c7.1 0 14-3.7 23.1-12.4 11.7-11.2 16.3-12.5 30.1-8.4 7.3 2.1 7.4 2.1 8.8.2 1.2-1.7 1.1-2.1-.9-3.8-7-5.7-21.1-9.6-28.3-7.7z"/><path d="M59.6 30.1c-3 2.4-3.4 6.3-1 9.7 1.1 1.6 2.5 2.2 5.4 2.2 4.4 0 7-2.6 7-7.1 0-3-4-6.9-7-6.9-1 0-2.9.9-4.4 2.1z"/></svg>