<svg xmlns="http://www.w3.org/2000/svg" height="77.945" width="77.944"><rect width="100%" height="100%" fill="none"/><g class="currentLayer"><title>Layer 1</title><g class="selected" fill="#dadada"><path d="M0 38.972C.001 17.448 17.448 0 38.972 0s38.973 17.448 38.973 38.972-17.448 38.971-38.973 38.973C17.448 77.943.001 60.496 0 38.972zm12.131-26.841C5.262 19.002 1.013 28.488 1.013 38.972c0 10.485 4.249 19.971 11.118 26.842 6.871 6.869 16.357 11.117 26.841 11.117 10.484 0 19.971-4.248 26.842-11.117 6.871-6.871 11.118-16.357 11.118-26.842 0-10.483-4.247-19.97-11.118-26.841-6.872-6.87-16.358-11.118-26.842-11.118-10.484 0-19.97 4.248-26.841 11.118z"/><path d="M28.203 26.825c0-5.947 4.821-10.769 10.77-10.77 5.947.001 10.769 4.822 10.769 10.77 0 5.948-4.821 10.77-10.769 10.771-5.949-.001-10.77-4.823-10.77-10.771zm1.07 0a9.713 9.713 0 0 0 9.699 9.699 9.713 9.713 0 0 0 9.698-9.699 9.71 9.71 0 0 0-9.698-9.697 9.71 9.71 0 0 0-9.699 9.697z"/><path d="M18.097 58.345l.07-.566c1.389-11.365 10.139-20.178 20.805-20.184 10.667.006 19.418 8.819 20.806 20.184l-.502.061v-.506.506l.502-.061.069.566h-41.75zm40.599-1.012C57.137 46.681 48.872 38.6 38.971 38.606c-9.898-.006-18.166 8.075-19.724 18.727h39.449z"/></g></g></svg>