<svg version="1.1" id="Layer_1" xmlns="http://www.w3.org/2000/svg" x="0" y="0" viewBox="0 0 439.5 364.9" xml:space="preserve"><style>.st0{fill:#ebebeb}.st1{fill:#e0e0e0}.st2{fill:#fafafa}.st3{fill:#fff}.st4{fill:#263238}.st5{fill:#00ac69}.st7{opacity:.3;enable-background:new}.st9{fill:#455a64}.st11{opacity:.6}</style><g id="background-complete--inject-2"><path class="st0" d="M113.1 326.3c15.9-11.8 18.9-32.7 17.7-51.4-.2-3.1 0-6.4-1.6-9.1s-5.2-4.5-8-3c-2.3 1.2-3.2 3.9-4.5 6.2-1.7 3-4.2 5.6-7.2 7.2-2 1.1-4.5 1.8-6.5.8-2.8-1.4-3.2-5.1-3.3-8.2l-.4-17.4c-.1-3.1-.2-6.3-1.2-9.2s-3.3-5.6-6.3-6.3c-3-.7-6.7 1.1-7.2 4.2-.1 1.3-.1 2.6 0 3.9 0 1.3-.6 2.7-1.8 3.1s-2.5-.4-3.5-1.3c-3.4-3-5.7-7-7.9-11s-4.3-8-7.4-11.3c-3-3.3-7.2-5.9-11.7-6s-9.2 2.8-10.2 7.2 1.7 8.8 4.7 12.2c4.4 5.1 9.4 9.6 15.1 13.3 1.1.5 2 1.4 2.5 2.5.9 2-1.1 4.1-3.1 4.9-2.3.9-4.9.7-7.3 1.1s-5.1 1.5-5.9 3.8c-1.2 3.2 1.6 6.5 4.3 8.5 5.5 4.2 11.6 7.4 18.1 9.6 2.3.8 4.8 1.4 6.7 3s3.1 4.3 2.1 6.5c-1.1 2.2-3.9 3-6.4 2.6s-4.6-1.6-7-2.4c-4.4-1.5-10-1-12.6 2.8-1.6 2.6-1.9 5.9-.8 8.7 1.1 2.8 2.8 5.4 5 7.5 7.1 7.9 16.3 13.8 26.4 17.1 10 3.2 19.3 3.9 29.2-.1"/><path class="st1" d="M46.4 220.3l.3.3 1 .8c.8.7 2.1 1.7 3.7 3.1 4.5 3.8 8.6 8 12.4 12.4 2.4 2.8 5 6 7.6 9.4 2.7 3.4 5.5 7.2 8.3 11.2 3 4.2 5.7 8.5 8.2 13 1.3 2.3 2.5 4.8 3.6 7.3l3.6 7.6c4.6 9.6 8.7 19.5 12.2 29.5 2.8 8.2 4.9 16.7 6.1 25.3.8 5.8 1.1 11.7.8 17.5-.1 2.1-.2 3.7-.3 4.8 0 .5-.1.9-.1 1.2v.4s.4-2.3.6-6.4c.3-5.9.1-11.8-.7-17.6-1.2-8.6-3.2-17.2-6-25.4-3.5-10.1-7.5-20-12.2-29.6-1.2-2.6-2.4-5.1-3.6-7.6-1.2-2.5-2.4-5-3.7-7.3-2.5-4.5-5.3-8.8-8.3-13-2.8-4-5.7-7.7-8.3-11.2s-5.2-6.6-7.7-9.4c-3.8-4.4-8-8.6-12.5-12.3-1.6-1.3-2.9-2.3-3.7-3l-1-.8-.3-.2zm41.9 50c.1-.4.2-.9.2-1.3.1-.9.3-2.1.4-3.7.3-3.1.6-7.4 1-12.2.3-4.8.7-9 1.1-12.1.2-1.5.4-2.8.5-3.7.1-.4.1-.9.1-1.4-.2.4-.3.9-.3 1.3-.2.9-.4 2.1-.6 3.6-.5 3.1-.9 7.4-1.3 12.1s-.6 9-.9 12.2c-.1 1.5-.2 2.7-.3 3.7.1.6 0 1 .1 1.5z"/><path class="st1" d="M47.6 264.1c.1 0 .3.1.4.1l1.2.1c1 0 2.6.1 4.4.3 3.7.3 8.8.8 14.5 1.7 5.6.9 10.7 1.9 14.3 2.7 1.8.4 3.3.8 4.3 1l1.2.3c.1 0 .3.1.4.1-.1-.1-.3-.1-.4-.2l-1.1-.4c-1-.3-2.4-.7-4.3-1.2-3.6-.9-8.7-2-14.3-2.9s-10.8-1.4-14.5-1.5c-1.9-.1-3.4-.1-4.4-.1H48c-.2-.1-.3 0-.4 0zm59.7 49.9c.1-.2.2-.3.2-.5.2-.4.4-.9.6-1.5.5-1.3 1.3-3.1 2.2-5.5 1.8-4.6 4.1-11.1 6.5-18.3s4.6-13.7 6.4-18.4c.9-2.3 1.6-4.2 2.1-5.5.2-.6.4-1.1.6-1.5.1-.2.1-.4.2-.5-.1.2-.2.3-.2.5l-.6 1.5c-.6 1.3-1.3 3.1-2.2 5.5-1.8 4.6-4.1 11.1-6.5 18.3s-4.6 13.7-6.4 18.4c-.9 2.3-1.6 4.2-2.1 5.5-.2.6-.4 1.1-.6 1.5-.1.2-.2.4-.2.5zM53 298.7c.2.1.4.1.5.2l1.6.5L61 301c4.9 1.4 11.7 3.4 19.1 5.6s14.2 4.2 19.2 5.5c2.5.6 4.5 1.2 5.9 1.5l1.6.4c.2.1.4.1.6.1-.2-.1-.4-.1-.6-.2l-1.6-.5-5.8-1.6c-4.9-1.4-11.7-3.4-19.1-5.6S66 302 61.1 300.7c-2.5-.7-4.5-1.2-5.9-1.5l-1.6-.4c-.2 0-.4-.1-.6-.1z"/><path class="st0" d="M0 48.7h159v106.5H0z"/><path class="st1" d="M0 48.7h159v10.6H0z"/><path class="st2" d="M6.9 54.1c.1.7-.5 1.3-1.2 1.4s-1.3-.5-1.4-1.2c-.1-.7.5-1.3 1.2-1.4h.1c.7-.1 1.3.5 1.3 1.2zm4.2 0c.1.7-.5 1.3-1.2 1.4s-1.3-.5-1.4-1.2c-.1-.7.5-1.3 1.2-1.4h.1c.7-.1 1.3.5 1.3 1.2zm4.1 0c.1.7-.5 1.3-1.2 1.4-.7.1-1.3-.5-1.4-1.2-.1-.7.5-1.3 1.2-1.4h.1c.7-.1 1.3.5 1.3 1.2z"/><path class="st0" d="M280.3 45.6h159v106.5h-159z"/><path class="st1" d="M280.3 45.6h159v10.6h-159z"/><path class="st2" d="M287.2 50.9c-.1.7-.7 1.2-1.4 1.2-.6-.1-1.1-.5-1.2-1.2.1-.7.7-1.2 1.4-1.2.6.1 1.1.6 1.2 1.2zm4.1 0c0 .7-.5 1.3-1.2 1.4-.7 0-1.3-.5-1.4-1.2 0-.7.5-1.3 1.2-1.4h.1c.7 0 1.3.5 1.3 1.2zm4.2 0c0 .7-.5 1.3-1.2 1.4-.7 0-1.3-.5-1.4-1.2 0-.7.5-1.3 1.2-1.4h.1c.7 0 1.2.5 1.3 1.2z"/></g><g id="Windows--inject-2"><path class="st3" d="M32.2 23.8H235v135.9H32.2z"/><path class="st0" d="M32.4 22.8h202.8v13.6H32.4z"/><path class="st2" d="M43.2 28.6c.1.9-.6 1.7-1.5 1.7-.9.1-1.7-.6-1.7-1.5-.1-.9.6-1.7 1.5-1.7h.1c.8 0 1.5.7 1.6 1.5zm5.3 0c.1.9-.6 1.7-1.5 1.7-.9.1-1.7-.6-1.7-1.5-.1-.9.6-1.7 1.5-1.7h.1c.8 0 1.5.7 1.6 1.5zm5.3 0c.1.9-.6 1.7-1.5 1.7-.9.1-1.7-.6-1.7-1.5-.1-.9.6-1.7 1.5-1.7h.1c.8 0 1.5.6 1.6 1.5-.1 0-.1 0 0 0z"/><path class="st4" d="M235.3 158.7V149c0-6.3 0-15.5-.1-27.3 0-23.6-.1-57.5-.1-98.9l.2.2-202.8.1.3-.3v135.9l-.3-.3 146.1.1 41.7.1h14l1 .1-.9-.1h-13.8l-41.7.1-146.3.1h-.3V22.3h203.3v.2c0 41.4-.1 75.4-.1 99.1V156c0 1.6-.2 2.7-.2 2.7z"/><path class="st5" d="M45.6 98.6h46.1v3.1H45.6zm59.6-42.8h46.1v3.1h-46.1z"/><path class="st4" d="M219.9 67.3c0 .2-25.7.3-57.4.3s-57.4-.1-57.4-.3 25.7-.3 57.4-.3 57.4.1 57.4.3zm0 6.7c0 .1-25.7.3-57.4.3s-57.4-.1-57.4-.3 25.7-.3 57.4-.3 57.4.2 57.4.3zm0 6.8c0 .2-25.7.3-57.4.3s-57.4-.1-57.4-.3 25.7-.3 57.4-.3 57.4.1 57.4.3zm0 6.7c0 .2-25.7.3-57.4.3s-57.4-.1-57.4-.3 25.7-.3 57.4-.3 57.4.2 57.4.3zm0 6.8c0 .2-25.7.3-57.4.3s-57.4-.1-57.4-.3 25.7-.3 57.4-.3 57.4.1 57.4.3zM150 101c0 .2-10 .3-22.4.3s-22.4-.1-22.4-.3 10-.3 22.4-.3 22.4.1 22.4.3zm69.1 13.1c0 .2-16.9.3-37.7.3s-37.7-.1-37.7-.3 16.9-.3 37.7-.3 37.7.1 37.7.3zm0 7.1c0 .2-16.9.3-37.7.3s-37.7-.1-37.7-.3 16.9-.3 37.7-.3 37.7.2 37.7.3zm0 7.2c0 .2-16.9.3-37.7.3s-37.7-.1-37.7-.3c0-.2 16.9-.3 37.7-.3s37.7.1 37.7.3zm0 7.1c0 .2-16.9.3-37.7.3s-37.7-.1-37.7-.3c0-.2 16.9-.3 37.7-.3s37.7.2 37.7.3zM91.9 113.4c0 .2-10.1.3-22.5.3s-22.5-.1-22.5-.3 10.1-.3 22.5-.3 22.5.1 22.5.3zm0 5.6c0 .2-10.1.3-22.5.3s-22.5-.1-22.5-.3 10.1-.3 22.5-.3 22.5.1 22.5.3zm0 5.6c0 .1-10.1.3-22.5.3s-22.5-.1-22.5-.3 10.1-.3 22.5-.3 22.5.2 22.5.3zm0 5.6c0 .2-10.1.3-22.5.3s-22.5-.1-22.5-.3c0-.2 10.1-.3 22.5-.3s22.5.2 22.5.3zm0 5.6c0 .2-10.1.3-22.5.3s-22.5-.1-22.5-.3c0-.2 10.1-.3 22.5-.3s22.5.2 22.5.3z"/><path class="st5" d="M105.2 110.7h32.7v31.7h-32.7z"/><path d="M107.7 139.6l9.1-16.3 7.4 10.4 4.5-5.5 6.7 11.4zm19.6-19.5c0 1.3-1.1 2.4-2.4 2.4s-2.4-1.1-2.4-2.4 1.1-2.4 2.4-2.4 2.4 1.1 2.4 2.4z"/><path class="st7" d="M135.4 139.7v-7.3c0-4.6 0-11.2-.1-19.1l.1.1h-27.6l.1-.1v26.4l-.1-.1 20 .1h7.1-7l-20.1.1h-.1v-26.5l.2-.2h27.7v.1c0 7.9 0 14.6-.1 19.2v7.1l-.1.2z"/><path class="st5" d="M43.8 47H90v44.7H43.8z"/><path d="M47.4 87.9l12.7-23 10.5 14.7 6.4-7.8 9.4 16.1z"/><circle cx="71.7" cy="60.4" r="3.3"/><path class="st7" d="M86.4 88v-2.7c0-1.8 0-4.3-.1-7.6 0-6.5-.1-15.8-.1-27l.2.2h-39c.1-.1.1-.2.2-.2V88l-.2-.2 28.3.1 8 .1h2.1-10l-28.4.1h-.2V50.7l.2-.2h39.3v.2c0 11.2-.1 20.6-.1 27.1v10.1s-.1.1-.2.1z"/><path class="st3" d="M211.3 30.3h196.4v131.6H211.3z"/><path class="st0" d="M211.5 29.4h196.4v13.1H211.5z"/><path class="st2" d="M221.9 35c.1.9-.6 1.6-1.5 1.7-.9.1-1.6-.6-1.7-1.5-.1-.9.6-1.6 1.5-1.7h.1c.8 0 1.6.6 1.6 1.5zm5.1 0c.1.9-.6 1.6-1.5 1.7-.9.1-1.6-.6-1.7-1.5-.1-.9.6-1.6 1.5-1.7h.1c.9 0 1.6.7 1.6 1.5zm5.1 0c.1.9-.6 1.6-1.5 1.7-.9.1-1.6-.6-1.7-1.5-.1-.9.6-1.6 1.5-1.7h.1c.9 0 1.6.6 1.6 1.5z"/><path class="st4" d="M407.9 160.9v-9.3c0-6.1 0-15-.1-26.5 0-22.9-.1-55.7-.1-95.8l.2.2-196.4.1.3-.3v131.6l-.3-.3 141.5.1 40.4.1H407l.9.1-.8-.1h-13.4l-40.4.1-141.7.1h-.3V29h.3l196.4.2h.2v.2c0 40.1-.1 73-.1 95.9 0 11.4 0 20.3-.1 26.4v6.9c0 1.6-.1 2.3-.1 2.3z"/><path class="st5" d="M224.3 102.8H269v3h-44.7zM282 61.3h44.7v3H282z"/><path class="st4" d="M393.1 72.4c0 .2-24.9.3-55.5.3s-55.6-.1-55.6-.3 24.9-.3 55.5-.3 55.6.2 55.6.3zm0 6.5c0 .2-24.9.3-55.5.3s-55.6-.1-55.6-.3 24.9-.3 55.5-.3 55.6.2 55.6.3zm0 6.6c0 .2-24.9.3-55.5.3s-55.6-.2-55.6-.3 24.9-.3 55.5-.3 55.6.1 55.6.3zm0 6.5c0 .2-24.9.3-55.5.3S282 92.2 282 92s24.9-.3 55.5-.3 55.6.1 55.6.3zm0 6.5c0 .2-24.9.3-55.5.3s-55.6-.1-55.6-.3 24.9-.3 55.5-.3 55.6.2 55.6.3zm-67.8 6.5c0 .2-9.7.3-21.7.3s-21.6-.1-21.6-.3 9.7-.3 21.7-.3 21.6.2 21.6.3zm66.9 12.7c0 .2-16.3.3-36.5.3s-36.5-.1-36.5-.3 16.3-.3 36.5-.3 36.5.1 36.5.3zm0 6.9c0 .2-16.3.3-36.5.3s-36.5-.1-36.5-.3 16.3-.3 36.5-.3 36.5.2 36.5.3zm0 7c0 .2-16.3.3-36.5.3s-36.5-.1-36.5-.3c0-.2 16.3-.3 36.5-.3s36.5.1 36.5.3zm0 6.9c0 .2-16.3.3-36.5.3s-36.5-.1-36.5-.3c0-.2 16.3-.3 36.5-.3s36.5.1 36.5.3zM269.1 117c0 .2-9.8.3-21.8.3s-21.8-.1-21.8-.3 9.7-.3 21.8-.3 21.8.2 21.8.3zm0 5.5c0 .2-9.8.3-21.8.3s-21.8-.1-21.8-.3 9.7-.3 21.8-.3 21.8.1 21.8.3zm0 5.4c0 .2-9.8.3-21.8.3s-21.8-.1-21.8-.3c0-.2 9.7-.3 21.8-.3s21.8.2 21.8.3zm0 5.5c0 .2-9.8.3-21.8.3s-21.8-.1-21.8-.3c0-.2 9.7-.3 21.8-.3s21.8.1 21.8.3zm0 5.4c0 .2-9.8.3-21.8.3s-21.8-.1-21.8-.3c0-.2 9.7-.3 21.8-.3s21.8.1 21.8.3z"/><path class="st5" d="M281.9 114.4h31.7v30.7h-31.7z"/><path d="M284.4 142.4l8.8-15.7 7.1 10.1 4.4-5.4 6.5 11zm19-18.8c0 1.3-1 2.3-2.3 2.3s-2.3-1-2.3-2.3c0-1.3 1-2.3 2.3-2.3 1.3 0 2.3 1 2.3 2.3z"/><path class="st7" d="M311.2 142.5v-7.1c0-4.5 0-10.9-.1-18.5l.1.1h-26.8l.1-.1v25.6l-.1-.1 19.4.1h6.9-6.8l-19.4.1h-.1v-25.5c-.1.1.2-.2.1-.2h26.9v.1c0 7.7 0 14.1-.1 18.6v6.9c0-.1-.1 0-.1 0z"/><path class="st3" d="M101.5 1.5h258.3v173H101.5z"/><path class="st1" d="M101.7.3H360v17.3H101.7z"/><path class="st2" d="M115.4 7.7c.1 1.2-.8 2.2-1.9 2.2-1.2.1-2.2-.8-2.2-1.9s.8-2.2 1.9-2.2h.2c1-.1 1.9.8 2 1.9zm6.7 0c.1 1.2-.8 2.2-1.9 2.2-1.2.1-2.2-.7-2.3-1.9s.8-2.2 1.9-2.2h.1c1.2-.1 2.1.8 2.2 1.9zm6.7 0c.1 1.2-.8 2.2-1.9 2.3-1.2.1-2.2-.8-2.3-1.9-.1-1.2.8-2.2 1.9-2.3h.2c1.2-.1 2.1.8 2.1 1.9z"/><path class="st4" d="M360 173.3c0-1.9-.1-67.6-.2-173l.2.2-258.3.1.3-.3v173l-.3-.3 258.3.3-258.3.3h-.3V0h.3L360 .1h.2v.2c-.1 105.4-.2 171.1-.2 173z"/><path class="st5" d="M118.5 96.8h58.7v3.9h-58.7zm75.9-54.5h58.7v3.9h-58.7z"/><path class="st4" d="M340.5 56.9c0 .1-32.7.3-73 .3s-73.1-.1-73.1-.3 32.7-.3 73.1-.3 73 .2 73 .3zm0 8.6c0 .2-32.7.3-73 .3s-73.1-.1-73.1-.3 32.7-.3 73.1-.3 73 .1 73 .3zm0 8.6c0 .2-32.7.3-73 .3s-73.1-.1-73.1-.3 32.7-.3 73.1-.3 73 .1 73 .3zm0 8.6c0 .2-32.7.3-73 .3s-73.1-.1-73.1-.3 32.7-.3 73.1-.3 73 .1 73 .3zm0 8.5c0 .2-32.7.3-73 .3s-73.1-.1-73.1-.3 32.7-.3 73.1-.3 73 .2 73 .3zm-89.1 8.6c0 .2-12.8.3-28.5.3s-28.5-.1-28.5-.3 12.8-.3 28.5-.3 28.5.2 28.5.3zm88 16.7c0 .2-21.5.3-48 .3s-48-.1-48-.3 21.5-.3 48-.3 48 .1 48 .3zm0 9.1c0 .2-21.5.3-48 .3s-48-.1-48-.3 21.5-.3 48-.3 48 .1 48 .3zm0 9.1c0 .2-21.5.3-48 .3s-48-.1-48-.3c0-.2 21.5-.3 48-.3s48 .1 48 .3zm0 9.1c0 .2-21.5.3-48 .3s-48-.1-48-.3c0-.2 21.5-.3 48-.3s48 .1 48 .3zm-162-28.2c0 .2-12.8.3-28.6.3s-28.6-.1-28.6-.3 12.8-.3 28.6-.3 28.6.1 28.6.3zm0 7.1c0 .2-12.8.3-28.6.3s-28.6-.1-28.6-.3 12.8-.3 28.6-.3 28.6.2 28.6.3zm0 7.2c0 .2-12.8.3-28.6.3s-28.6-.1-28.6-.3c0-.2 12.8-.3 28.6-.3s28.6.1 28.6.3zm0 7.1c0 .2-12.8.3-28.6.3s-28.6-.1-28.6-.3c0-.2 12.8-.3 28.6-.3s28.6.2 28.6.3zm0 7.2c0 .2-12.8.3-28.6.3s-28.6-.1-28.6-.3 12.8-.3 28.6-.3 28.6.1 28.6.3z"/><path class="st5" d="M194.3 112.1H236v40.3h-41.7z"/><path d="M197.6 149l11.5-20.8 9.4 13.3 5.8-7 8.5 14.5zm25-24.8c0 1.7-1.3 3-3 3s-3-1.3-3-3 1.3-3 3-3c1.6 0 3 1.4 3 3z"/><path class="st7" d="M232.8 149.1v-9.3c0-5.9 0-14.3-.1-24.4l.2.2h-35.2l.2-.2V149l-.2-.2 25.5.1h9.7-9.5l-25.6.1h-.2v-33.6l.2-.2h35.4v.2c0 10.1-.1 18.5-.1 24.5v9.1c-.1.1-.3.1-.3.1z"/><path class="st5" d="M116.1 31H175v57h-58.9z"/><path d="M120.7 83.1L137 53.8l13.3 18.8 8.1-10 12 20.5zm35.3-35c0 2.3-1.9 4.2-4.2 4.2s-4.2-1.9-4.2-4.2c0-2.3 1.9-4.2 4.2-4.2 2.3 0 4.2 1.9 4.2 4.2z"/><path class="st7" d="M170.4 83.3v-3.5c0-2.3 0-5.5-.1-9.7 0-8.3-.1-20.2-.1-34.4l.2.2h-49.7l.3-.3v47.6l-.2-.2 36 .1 10.1.1h3.4-3.3l-10.1.1-36.1.1h-.2V35.8c-.2.2.3-.4.3-.3h49.9v.2c0 14.3-.1 26.2-.1 34.6 0 4.1 0 7.4-.1 9.6V83c0 .2-.1.2-.2.3z"/></g><path class="st4" d="M439.5 364.5c0 .2-97.2.3-217 .3s-217-.1-217-.3 97.1-.3 217-.3 217 .2 217 .3z" id="Floor--inject-2"/><g id="Character--inject-2"><path class="st5" d="M226.2 355.8l-2.6 8.5 18.2-.2.8-9.1z"/><path class="st4" d="M242.1 362.4c-.9.2-1.8.2-2.6.2h-6.4l-6.4-.2c-.9 0-1.7-.1-2.6-.3.9-.2 1.8-.2 2.6-.2h6.4l6.4.2c.9 0 1.7.1 2.6.3z"/><path class="st4" d="M234.3 354.7c.2 1.3.2 2.6.1 3.8 0 1.3-.1 2.6-.5 3.8-.2-1.3-.2-2.6-.1-3.8 0-1.3.2-2.6.5-3.8z"/><path opacity=".6" fill="#fff" d="M223.6 364.3l18.2-.2.1-1.7-18-.2-.3 1.9"/><path class="st4" d="M296.4 358.2L265 195.8l-.2-.7c-4.8-19.1-8.6-23.8-8.6-23.8l-46.9 1.3c-3.7 6.6-4.1 22.5-4.1 22.5-.5 1.9 20.9 161.1 20.9 161.1l16.1-1.3-5.5-149.8 42 153.5 17.7-.4z"/><path class="st9" d="M249.1 200c0 .2-5.2 1.6-11.7 3.3s-11.8 2.9-11.8 2.8 5.2-1.6 11.7-3.3 11.8-2.9 11.8-2.8z"/><path d="M206.6 116.6l-36 2.2-31-27.8-.3-1c-.2-.5-.4-1.1-.6-1.8-.2-.8-.3-1.6-.3-2.4 0-1 .1-2 .4-3 .4-.9-.5-1.7-1.2-1.2s-1.7 2.8-1.6 5.7-2.9-.5-4-1.8-4.7-4.9-5.4-4.9c-.9.1-1.1 1.1.1 2.3s4.3 5.1 3.6 5.7-6.3-5.9-6.3-5.9-1-1.6-1.8-.9c-1.4 1.1 5 7.6 5.6 8.1.4.4-.3 1.1-.7.6s-5.4-6.6-6.9-5.4c-1.1.9 5.2 5.3 5.6 7.2s-4.5-3.9-5.6-3c-.4.3-.6.6 2.6 3.5 2.2 2.1 4.5 4 6.9 5.9l32.4 35.8 45.3 4-.8-21.9zm111.9-57.8c-1.3-.6-4.3 6.3-4.5 4.4s4.7-7.9 3.4-8.4c-1.7-.7-4.8 6.5-5.1 7.1s-1.1.1-.9-.4c.4-.8 4.8-8.7 3.1-9.4-.9-.4-1.4 1.4-1.4 1.4s-3.6 7.8-4.4 7.4 1.1-5 1.9-6.5.4-2.5-.6-2.3c-.6.1-3.1 4.7-3.8 6.2s-2.6 5.7-3.4 2.8-2.3-4.8-3.1-5-1.4.8-.8 1.5c.5.8.9 1.8 1.2 2.7.3.8.4 1.6.4 2.4v2.9l-22.1 35.3-35.2 7.9 6.3 22.7 41.3-17.6 21.3-43.4c1.8-2.4 3.4-4.9 5-7.5 2.2-3.8 1.9-4 1.4-4.2z" fill="#ffbe9d"/><path class="st9" d="M252.1 136.8l.6-2.1c1.4-.9 18.4-11.5 19-11.6s-7.6-19.5-7.6-19.5l-19.3 2.8c-1.1-.3-2.2-.5-3.3-.6l-22.7-.2s-6 1-8.6 2.9l-20.5 7.7 4.7 23.8 16.1-1.4c.2 1.8 1.2 8.6 1.6 10.3 1.4 5.8 2.3 13.7-.8 18.8 0 0-6.2 12.4-6.2 22.8l57.2-6.7s-2.5-10-12.9-23.4l.5-14.1 2.2-9.5z"/><path class="st4" d="M220.1 61.3c-4.8 2.2-6.7 7.4-7.1 12.2s0 9.9-1.8 14.4c-1.6 3.8-4.8 7.3-4.4 11.4.3 3 2.5 5.7 2.9 8.8.8 5.9-5.4 11.1-4.3 17 .5 2.7 2.6 5 5 6.5 2.5 1.5 5.3 2.7 8.1 3.5 3.8 1.3 8 2.5 11.7 1.2 3.3-1.2 5.5-4.2 9-5 3.5-.9 6.8.5 10.2.6 3.1.1 6.2-1 8.4-3.2 2.1-2.1 2.8-5.2 1.7-8-1.5-3.8-6.2-6.2-6.9-10.1-.6-3.6 2.2-7.1 1.3-10.6-1-3.9-6.3-6-7.5-9.9-1.5-4.6 3.3-9.6 1.5-14.1-1.1-2.7-4.3-4.3-5.2-7.1-.6-1.9 0-3.9-.4-5.8-.7-3.3-4.5-5.4-8.1-6.2-4.4-1-9.1-.3-13.1 1.8-3.8 2.1-6.3 5.8-6.8 10.1"/><path class="st4" d="M227.2 57.9c8.3-3.2 17.5 1 20.7 9.2.3.9.6 1.7.8 2.6.7 3.7.2 7.6 1.8 11 1.7 3.7 5.8 6.2 6.4 10.2s-2.3 7.4-2.9 11.3c-.6 4 1.3 8.1.8 12.2-.7 5.8-5.9 10-11.7 9.4-2.6-.3-5-1.5-6.7-3.5m-28.4 1.2s0-.1-.1-.2c0-.2-.1-.3-.1-.5-.1-.6 0-1.3.3-1.9.4-.9.9-1.8 1.4-2.7.8-1.1 1.4-2.2 1.8-3.5.4-1.5.2-3.2-.4-4.6-.7-1.7-1.6-3.3-2.6-4.8-1.2-1.7-2.2-3.5-2.9-5.5-.7-2.2-.6-4.5.1-6.7.4-1.1.9-2.1 1.6-3 .7-.8 1.4-1.7 2.2-2.4.7-.7 1.4-1.5 1.9-2.4.5-.8.8-1.7.9-2.7-.1-1.8-.3-3.7-.7-5.4-.3-1.6-.2-3.3.3-4.9.6-2.3 2-4.3 3.8-5.9.5-.4 1-.8 1.6-1.1l.6-.3-2.1 1.5c-1.7 1.5-3 3.6-3.6 5.8-.4 1.5-.5 3.1-.2 4.7.5 1.8.7 3.7.8 5.6-.1 1.1-.4 2.1-.9 3-.6.9-1.2 1.7-2 2.5s-1.5 1.5-2.2 2.4c-.7.9-1.2 1.8-1.5 2.9-.7 2-.8 4.2-.1 6.3.7 1.9 1.6 3.7 2.8 5.3 1.1 1.5 2 3.2 2.6 4.9.6 1.6.7 3.3.3 4.9-.5 1.3-1.1 2.5-1.9 3.6-.6.8-1.1 1.7-1.5 2.6-.2.9-.3 1.7-.2 2.5z"/><path class="st9" d="M250.7 130.9s.2-.2.6-.7c.6-.7.9-1.6 1.1-2.5.3-1.4.1-2.9-.4-4.2-.3-.8-.9-1.6-1.5-2.1-.8-.6-1.7-1.1-2.6-1.3-1.1-.3-2.2-.6-3.2-1.1-1.2-.6-1.9-1.9-1.9-3.2.2-1.4.8-2.6 1.8-3.6.9-1 2-1.9 2.9-3 1-1 1.4-2.4 1.1-3.8-.4-1.3-1.7-2.2-3-3-1.4-.7-2.8-1.6-4-2.6-.6-.6-1.1-1.3-1.3-2.2-.2-.8-.2-1.7 0-2.6.4-1.6 1.1-3.1 1.5-4.6.5-1.4.3-3-.6-4.2-1.9-2.3-5.4-2.6-7.3-5-.9-1.1-1.5-2.5-1.7-3.9-.2-1.3-.3-2.7-.3-4 .1-2.6.4-4.9.3-7 0-1.9-.6-3.8-1.8-5.3-.9-1.1-2.2-1.8-3.6-2.1-.9-.2-1.8-.1-2.6.3-.6.3-.8.5-.8.5 0-.1.1-.1.2-.2.2-.2.4-.3.6-.4.8-.5 1.8-.6 2.7-.4 1.5.3 2.8 1 3.8 2.1 1.3 1.5 2 3.5 2 5.5 0 2.3 0 4.7-.2 7 0 1.3.1 2.6.3 3.9.2 1.3.8 2.6 1.6 3.6 1 1 2.1 1.9 3.5 2.4 1.4.6 2.8 1.5 3.9 2.6.5.7.9 1.4.9 2.3.1.8 0 1.7-.2 2.5-.4 1.6-1.2 3-1.5 4.6-.4 1.5 0 3.1 1.1 4.2 1.2 1 2.5 1.8 3.9 2.5.7.4 1.3.8 1.9 1.3.6.5 1.1 1.2 1.3 2 .3.8.3 1.6 0 2.3-.3.7-.6 1.4-1.1 1.9-.9 1.1-2 2-2.9 3-.9.9-1.5 2-1.7 3.3-.1 1.2.5 2.3 1.6 2.8 1 .5 2.1.8 3.1 1.1 1 .3 2 .8 2.8 1.4.7.6 1.2 1.4 1.6 2.3.6 1.4.7 2.9.4 4.4-.2.9-.6 1.8-1.2 2.5-.5.3-.8.5-1.1.7z"/><path class="st9" d="M218.9 134.1c-.1-.2-.3-.5-.4-.8-.2-.5-.5-1.3-.9-2.2-.4-1.2-.7-2.4-1-3.7-.4-1.6-.5-3.3-.4-5 .2-2.1 1-4 2.4-5.6.7-.8 1.4-1.7 2.1-2.6.6-1 .9-2.1.9-3.3-.1-2.4-1.2-4.8-2.5-7.1s-2.7-4.9-2.9-7.8c-.1-1.5.3-3 1.2-4.1 1-1 2-1.9 3.2-2.6 1-.8 1.7-1.9 1.9-3.1.2-1.2.1-2.4-.1-3.6-.5-2.4-1.4-4.6-1.8-6.7-.9-5 .1-10.1 2.9-14.4.4-.7.9-1.3 1.5-1.9l.6-.6s-.8.9-1.9 2.6c-1.5 2.5-2.5 5.3-2.8 8.2-.2 2-.1 4 .2 6 .4 2.1 1.4 4.3 1.9 6.7.3 1.3.4 2.6.2 3.9-.3 1.4-1 2.6-2.1 3.4-1.1.7-2.2 1.6-3.1 2.5-.8 1.1-1.2 2.4-1.1 3.8.1 2.8 1.5 5.3 2.8 7.6s2.5 4.8 2.6 7.3c0 1.3-.3 2.5-1 3.6-.6.9-1.4 1.8-2.1 2.7-1.3 1.5-2.1 3.4-2.3 5.4-.2 1.6-.1 3.3.3 4.9.3 1.2.6 2.5 1 3.6.3.9.6 1.7.8 2.3-.2.1-.1.4-.1.6z"/><path class="st5" d="M297.4 359.9l-.1-1.9-18.8.5.2 6.1h1.2c5.2.1 26.2.3 29.7-.8 3.8-1-12.2-3.9-12.2-3.9z"/><g class="st11"><path class="st3" d="M285.5 364.3c-.3-1.5-1.2-2.8-2.5-3.6-1.3-.9-2.8-1.3-4.4-1.1l.1 4.9 6.8-.2z"/></g><g class="st11"><path class="st3" d="M305.3 361.5s5.6 1.3 4.9 2.2-22 1.4-31.4.9v-.4l24.9-.5c0 .1.5-2.1 1.6-2.2z"/></g><path class="st4" d="M278.5 364.3h4.6c2.9 0 6.8 0 11.2-.1s8.3-.3 11.2-.5l3.4-.2.9-.1h.3-1.1l-3.4.2c-2.9.1-6.8.3-11.2.4s-8.3.1-11.2.2h-4.3l-.4.1z"/><path class="st4" d="M303.7 364.1c.2-1.1.8-2.1 1.7-2.8-.6.2-1 .6-1.3 1.1-.4.6-.5 1.1-.4 1.7zm-5.6-2.5s.3-.3.6-.7.4-.8.4-.8-.3.3-.6.7-.4.8-.4.8zm-1.5-.7s.3-.1.6-.4.5-.5.5-.6-.3.1-.6.4-.6.6-.5.6zm-1.1-1.6c.3.1.7.1 1 .1.3 0 .7 0 1-.1-.3-.1-.7-.1-1-.1-.3 0-.6 0-1 .1zm-.3-1.2c.7.3 1.5.4 2.2.1h-1.1c-.4 0-.7-.1-1.1-.1z"/><path class="st4" d="M298.7 360.1c.4.1.8.1 1.2 0 .4-.1.9-.2 1.3-.3.3-.1.5-.2.7-.3.1-.1.2-.2.3-.4 0-.2 0-.4-.2-.5-.9-.4-2.1-.1-2.7.7-.2.2-.3.5-.4.8v.3c.1-.4.3-.7.5-1 .3-.3.6-.5 1-.6.5-.2 1-.2 1.4 0 .2.1.1.3-.1.5-.2.1-.4.2-.7.3l-1.2.3c-.7.1-1.1.2-1.1.2z"/><path class="st4" d="M299 360.1c.1-.2.2-.5.1-.8-.1-.3-.2-.6-.4-.8-.2-.3-.6-.5-1-.5-.2 0-.4.3-.4.5s.1.3.2.5c.2.2.4.5.6.7.3.2.5.3.9.4-.1 0-.3-.2-.7-.5-.2-.2-.4-.4-.5-.7-.2-.2-.3-.6 0-.7.3 0 .6.2.8.5.2.2.3.5.4.7v.7zm-20.2-.6s.5-.1 1.4 0c1.1.1 2.1.5 3 1.1.9.6 1.6 1.4 2 2.4.2.4.3.8.4 1.2v-.4c0-.3-.1-.6-.2-.9-.4-1-1.1-1.9-2-2.5-.9-.6-2-1-3.2-1.1h-1c-.2.1-.3.1-.4.2zm9.1 3.1c.9.2 1.8.2 2.7.2.9 0 1.8-.1 2.7-.3 0-.1-1.2 0-2.7.1s-2.7-.1-2.7 0z"/><path class="st4" d="M284.2 362.7s.1.2.2.5.2.5.3.5.1-.3-.1-.6-.4-.5-.4-.4zm-1.4-1.6s.1.2.3.4.4.3.4.2-.1-.2-.3-.4-.4-.2-.4-.2zm-2-.7s.3 0 .5.1.5.2.5.2-.1-.3-.5-.4-.5.1-.5.1zm-1.4-.3l.2.2c.1.1.3 0 .3 0l-.2-.2c-.1-.1-.3 0-.3 0z"/></g><g id="Plant--inject-2"><path class="st5" d="M378.9 340.2c2.9-1.3 6.1-1.7 9.2-1.1 1.7.1 3.3.8 4.5 2 1.1 1.2 1.4 3.4 0 4.5-.8.6-1.8.8-2.9.7-2.4 0-5.1-.5-7 1-1.1.8-1.8 2.2-3.1 2.6-1.4.3-2.8-.3-3.4-1.5-.6-1.2-.8-2.6-.4-3.9.3-1.8 1.5-3.4 3.1-4.3z"/><path d="M378.9 340.2c2.9-1.3 6.1-1.7 9.2-1.1 1.7.1 3.3.8 4.5 2 1.1 1.2 1.4 3.4 0 4.5-.8.6-1.8.8-2.9.7-2.4 0-5.1-.5-7 1-1.1.8-1.8 2.2-3.1 2.6-1.4.3-2.8-.3-3.4-1.5-.6-1.2-.8-2.6-.4-3.9.3-1.8 1.5-3.4 3.1-4.3z" opacity=".2" fill="#fff"/><path class="st5" d="M372.5 327.9c1.7 2.4 5 1.6 6.5.1s2.2-3.6 2.8-5.7c1.4-4.7 2.7-9.6 1.7-14.4-.2-1.4-.9-2.8-1.8-3.9-1-1.1-2.5-1.6-4-1.3-1.7.4-2.7 2.1-3.5 3.6-2.2 4.6-3.4 9.6-3.4 14.7 0 2.5.5 4.9 1.7 6.9"/><path class="st7" d="M372.5 327.9c1.7 2.4 5 1.6 6.5.1s2.2-3.6 2.8-5.7c1.4-4.7 2.7-9.6 1.7-14.4-.2-1.4-.9-2.8-1.8-3.9-1-1.1-2.5-1.6-4-1.3-1.7.4-2.7 2.1-3.5 3.6-2.2 4.6-3.4 9.6-3.4 14.7 0 2.5.5 4.9 1.7 6.9"/><path class="st5" d="M367.9 331.4c1.8-2.3 2.3-5.4 1.4-8.1-.9-2.7-2.6-5.2-4.8-7-2.5-2.2-5.4-4-8.6-5.1-1.2-.5-2.6-.7-3.9-.7-1.4.1-2.6.8-3.3 2-.9 1.7 0 3.8.9 5.5 1.7 3 3.6 5.9 5.7 8.6 1.7 2.2 3.6 4.4 6.2 5.3s5.3.9 6.7-.9"/><path class="st4" d="M372.4 364.6c.1-.4.1-.7.1-1.1l.3-3c.1-1.5.4-3 .7-4.4.4-1.8.9-3.5 1.6-5.2.7-1.7 1.6-3.3 2.7-4.7.9-1.2 2.1-2.1 3.4-2.8.9-.4 1.8-.7 2.8-.9.4 0 .7-.1 1.1-.2H384c-1 .1-2.1.3-3 .8-1.4.7-2.6 1.6-3.5 2.8-1.2 1.5-2.1 3.1-2.8 4.8-.7 1.7-1.2 3.5-1.6 5.3-.3 1.5-.5 3-.6 4.5-.1 1.3-.1 2.3-.1 3v1.1z"/><path class="st4" d="M372.6 362.3v-2c0-1.3 0-3.1.1-5.4.1-4.5.5-9.4 1.3-16.3.7-6.5 1.7-14 2.7-18.9.2-1.1.4-2.1.6-3s.4-1.6.5-2.3.2-1 .3-1.4c0-.2.1-.3.1-.5-.1.2-.1.3-.2.5l-.4 1.4c-.2.6-.4 1.4-.6 2.2s-.5 1.9-.7 3c-1.2 5.8-2.2 11.7-2.8 17.6-.8 6.9-1.1 13.2-1.1 17.8 0 2.3 0 4.1.1 5.4 0 .6.1 1.1.1 1.5v.4z"/><path class="st4" d="M372.7 350.1v-1.5c-.1-1-.2-2.4-.5-4.1-.3-2-.8-4.1-1.4-6-.7-2.4-1.5-4.8-2.5-7.1-1.8-4.3-4.3-8.2-7.4-11.6-.5-.6-1.1-1.1-1.8-1.6-.3-.2-.5-.5-.7-.6l-.7-.5c-.4-.3-.8-.6-1.3-.8 1.5 1.2 2.9 2.4 4.2 3.8 3.1 3.4 5.5 7.3 7.2 11.5 1 2.3 1.9 4.7 2.5 7.1.6 2 1.1 4 1.4 6 .3 1.7.5 3.1.6 4.1.2.3.3.8.4 1.3z"/></g></svg>